<svg
   width="100"
   height="100"
   viewBox="0 0 100 100"
   version="1.1"
   xmlns="http://www.w3.org/2000/svg"
   xmlns:svg="http://www.w3.org/2000/svg">
  <g
     transform="translate(-25.251526,-94.307981)" fill="#5455aa">
    <path
       d="m 121.2409,114.04424 -20.75095,0 c -2.641675,0 -5.174582,0.50076 -7.538201,1.3834 -0.281709,0.10519 -0.4092,0.41947 -0.29141,0.69615 1.635752,3.84234 2.748742,7.97579 3.245543,12.30243 0.04166,0.36278 0.327998,0.51025 0.658739,0.35567 1.1823,-0.55259 2.508567,-0.85857 3.925329,-0.85857 h 19.39581 a 0.32893603,0.32893603 139.36586 0 0 0.32512,-0.279 l 1.92808,-12.55356 a 0.90858714,0.90858714 49.365856 0 0 -0.89806,-1.04652 z" />
    <path
       d="M 124.77606,94.307976 H 98.767474 c -6.547895,0 -12.713899,1.73138 -18.109144,4.764591 -0.322413,0.181261 -0.347499,0.521636 -0.06379,0.758946 3.326812,2.782717 6.234505,6.081827 8.610602,9.782357 0.143951,0.22419 0.458013,0.32481 0.706399,0.22844 2.74273,-1.06407 5.72352,-1.6497 8.855932,-1.6497 h 23.894896 a 0.62466683,0.62466683 139.36414 0 0 0.61743,-0.52987 l 1.96623,-12.807127 a 0.47548343,0.47548343 49.364137 0 0 -0.46997,-0.547637 z" />
    <path
       d="m 73.739671,193.82992 v -56.99307 c 0,-12.89953 -10.207353,-23.50497 -22.622778,-23.50497 H 28.595581 a 0.26372505,0.26372505 130.34458 0 0 -0.260251,0.30639 l 2.197461,13.40319 a 0.20887607,0.20887607 40.344577 0 0 0.206124,0.17508 l 20.377978,0 c 5.242951,0 9.257456,4.1729 9.257456,9.62031 v 57.02174 a 0.44939116,0.44939116 45 0 0 0.449391,0.44939 h 12.437867 a 0.4780642,0.4780642 135 0 0 0.478064,-0.47806 z" />
    <path
       d="m 25.253811,94.826096 2.205667,13.465664 a 0.26105609,0.26105609 40.348799 0 0 0.257623,0.21886 h 25.654752 c 13.894278,0 24.872347,11.40617 24.872347,25.84226 v 59.47054 a 0.48455981,0.48455981 45 0 0 0.48456,0.48456 l 12.390387,0 a 0.48321453,0.48321453 135 0 0 0.483215,-0.48321 v -59.47189 c 0,-21.88823 -17.163998,-39.728763 -38.230509,-39.728763 H 25.824679 l -0.399281,0 a 0.17387349,0.17387349 130.3488 0 0 -0.171587,0.201979 z" />
  </g>
</svg>
